<svg width="32" height="32" viewBox="0 0 32 32" fill="none" xmlns="http://www.w3.org/2000/svg">
<path fill-rule="evenodd" clip-rule="evenodd" d="M3.02001 4.46447C1.55554 5.92893 1.55554 8.28595 1.55554 13V19C1.55554 23.714 1.55554 26.0711 3.02001 27.5355C4.48447 29 6.84149 29 11.5555 29H20.4444C25.1585 29 27.5155 29 28.98 27.5355C30.4444 26.0711 30.4444 23.714 30.4444 19V13C30.4444 8.28595 30.4444 5.92893 28.98 4.46447C27.5155 3 25.1585 3 20.4444 3H11.5555C6.8415 3 4.48447 3 3.02001 4.46447ZM21.7777 9.16672C22.6061 9.16672 23.2777 9.83829 23.2777 10.6667V22.2223C23.2777 23.0507 22.6061 23.7223 21.7777 23.7223C20.9493 23.7223 20.2777 23.0507 20.2777 22.2223V10.6667C20.2777 9.83829 20.9493 9.16672 21.7777 9.16672ZM11.7222 13.5556C11.7222 12.7272 11.0506 12.0556 10.2222 12.0556C9.39373 12.0556 8.72215 12.7272 8.72215 13.5556V22.2223C8.72215 23.0507 9.39373 23.7223 10.2222 23.7223C11.0506 23.7223 11.7222 23.0507 11.7222 22.2223V13.5556ZM17.5 16.4446C17.5 15.6161 16.8284 14.9446 16 14.9446C15.1716 14.9446 14.5 15.6161 14.5 16.4446V22.2223C14.5 23.0508 15.1716 23.7223 16 23.7223C16.8284 23.7223 17.5 23.0508 17.5 22.2223V16.4446Z" fill="#86BCFC"/>
</svg>
