<svg width="32" height="32" viewBox="0 0 32 32" fill="none" xmlns="http://www.w3.org/2000/svg">
<path fill-rule="evenodd" clip-rule="evenodd" d="M3.46447 4.46447C2 5.92893 2 8.28595 2 13V19C2 23.714 2 26.0711 3.46447 27.5355C4.92893 29 7.28595 29 12 29H20.8889C25.6029 29 27.96 29 29.4244 27.5355C30.8889 26.0711 30.8889 23.714 30.8889 19V13C30.8889 8.28595 30.8889 5.92893 29.4244 4.46447C27.96 3 25.6029 3 20.8889 3H12C7.28595 3 4.92893 3 3.46447 4.46447ZM22.2222 9.16672C23.0506 9.16672 23.7222 9.83829 23.7222 10.6667V22.2223C23.7222 23.0507 23.0506 23.7223 22.2222 23.7223C21.3937 23.7223 20.7222 23.0507 20.7222 22.2223V10.6667C20.7222 9.83829 21.3937 9.16672 22.2222 9.16672ZM12.1666 13.5556C12.1666 12.7272 11.495 12.0556 10.6666 12.0556C9.83819 12.0556 9.16661 12.7272 9.16661 13.5556V22.2223C9.16661 23.0507 9.83819 23.7223 10.6666 23.7223C11.495 23.7223 12.1666 23.0507 12.1666 22.2223V13.5556ZM17.9444 16.4446C17.9444 15.6161 17.2729 14.9446 16.4444 14.9446C15.616 14.9446 14.9444 15.6161 14.9444 16.4446V22.2223C14.9444 23.0508 15.616 23.7223 16.4444 23.7223C17.2729 23.7223 17.9444 23.0508 17.9444 22.2223V16.4446Z" fill="#878787"/>
</svg>
