<svg width="24" height="24" viewBox="0 0 24 24" fill="none" xmlns="http://www.w3.org/2000/svg">
<path d="M9.56218 4.78702C10.4869 2.39466 10.9492 1.19848 11.7004 1.03269C11.8979 0.989102 12.1021 0.989102 12.2996 1.03269C13.0508 1.19848 13.5131 2.39466 14.4378 4.78702C14.9637 6.14751 15.2266 6.82776 15.7186 7.29043C15.8566 7.4202 16.0064 7.53578 16.1659 7.63555C16.7345 7.99122 17.4444 8.0572 18.8641 8.18915C21.2674 8.41251 22.4691 8.5242 22.8361 9.23523C22.9121 9.3825 22.9637 9.54194 22.9889 9.70693C23.1106 10.5036 22.2272 11.3377 20.4604 13.0058L19.9697 13.469C19.1437 14.2489 18.7307 14.6388 18.4918 15.1255C18.3485 15.4174 18.2525 15.7318 18.2074 16.0561C18.1324 16.5966 18.2533 17.1623 18.4952 18.2937L18.5816 18.6979C19.0154 20.7269 19.2323 21.7413 18.9616 22.24C18.7184 22.6879 18.2704 22.9747 17.7755 22.9992C17.2246 23.0265 16.4484 22.3701 14.8959 21.0572C13.8731 20.1923 13.3617 19.7598 12.7939 19.5909C12.2751 19.4365 11.7249 19.4365 11.2061 19.5909C10.6383 19.7598 10.1269 20.1923 9.10409 21.0572C7.55161 22.3701 6.77536 23.0265 6.22446 22.9992C5.72961 22.9747 5.28165 22.6879 5.03845 22.24C4.7677 21.7413 4.98459 20.7269 5.41837 18.6979L5.5048 18.2937C5.74668 17.1623 5.86762 16.5966 5.79257 16.0561C5.74755 15.7318 5.65146 15.4174 5.50816 15.1255C5.26928 14.6388 4.85627 14.2489 4.03026 13.469L3.53962 13.0058C1.77282 11.3377 0.889414 10.5036 1.01107 9.70693C1.03627 9.54194 1.08794 9.3825 1.16394 9.23523C1.5309 8.5242 2.73257 8.41251 5.1359 8.18915C6.55561 8.0572 7.26547 7.99122 7.83411 7.63555C7.99361 7.53578 8.14341 7.4202 8.2814 7.29043C8.77339 6.82776 9.03632 6.14751 9.56218 4.78702Z" fill="#86BCFC" stroke="#86BCFC" stroke-width="2"/>
</svg>
