<svg width="32" height="32" viewBox="0 0 32 32" fill="none" xmlns="http://www.w3.org/2000/svg">
<path fill-rule="evenodd" clip-rule="evenodd" d="M2.52932 10.9961C2 12.1488 2 13.4601 2 16.0827V24.2735C2 27.9158 2 29.737 3.12973 30.8684C4.20332 31.9438 5.89872 31.9972 9.18548 31.9999V22.342C9.18548 20.4494 10.7174 18.9149 12.6071 18.9149H18.3928C20.2826 18.9149 21.8145 20.4492 21.8145 22.342V31.9999C25.1013 31.9972 26.7967 31.9438 27.8702 30.8684C29 29.737 29 27.9158 29 24.2735V16.0827C29 13.4601 29 12.1488 28.4707 10.9961C27.9413 9.84341 26.9473 8.99001 24.9591 7.28322L23.0305 5.62755C19.4371 2.54252 17.6403 1 15.5 1C13.3597 1 11.5629 2.54252 7.9694 5.62755L6.04083 7.28321C4.0527 8.99001 3.05863 9.84341 2.52932 10.9961ZM18.8284 32V22.342C18.8284 22.1011 18.6334 21.9058 18.3928 21.9058H12.6071C12.3666 21.9058 12.1716 22.1011 12.1716 22.342V32H18.8284Z" fill="#878787"/>
</svg>
