<svg width="32" height="32" viewBox="0 0 32 32" fill="none" xmlns="http://www.w3.org/2000/svg">
<path fill-rule="evenodd" clip-rule="evenodd" d="M3.52932 9.99608C3 11.1488 3 12.4601 3 15.0827V23.2735C3 26.9158 3 28.737 4.12973 29.8684C5.20332 30.9438 6.89872 30.9972 10.1855 30.9999V21.342C10.1855 19.4494 11.7174 17.9149 13.6071 17.9149H19.3928C21.2826 17.9149 22.8145 19.4492 22.8145 21.342V30.9999C26.1013 30.9972 27.7967 30.9438 28.8702 29.8684C30 28.737 30 26.9158 30 23.2735V15.0827C30 12.4601 30 11.1488 29.4707 9.99608C28.9413 8.84341 27.9473 7.99001 25.9591 6.28322L24.0305 4.62755C20.4371 1.54252 18.6403 0 16.5 0C14.3597 0 12.5629 1.54252 8.9694 4.62755L7.04083 6.28321C5.0527 7.99001 4.05863 8.84341 3.52932 9.99608ZM19.8284 31V21.342C19.8284 21.1011 19.6334 20.9058 19.3928 20.9058H13.6071C13.3666 20.9058 13.1716 21.1011 13.1716 21.342V31H19.8284Z" fill="white"/>
</svg>
