<svg width="32" height="32" viewBox="0 0 32 32" fill="none" xmlns="http://www.w3.org/2000/svg">
<g clip-path="url(#clip0_229_422)">
<path fill-rule="evenodd" clip-rule="evenodd" d="M2.08279 2.08279C0 4.1656 0 7.5178 0 14.2222V17.7778C0 24.4821 0 27.8345 2.08279 29.9172C4.1656 32 7.5178 32 14.2222 32H17.7778C24.4821 32 27.8345 32 29.9172 29.9172C32 27.8345 32 24.4821 32 17.7778V14.2222C32 7.5178 32 4.1656 29.9172 2.08279C27.8345 0 24.4821 0 17.7778 0H14.2222C7.5178 0 4.1656 0 2.08279 2.08279ZM14.2222 7.11111V14.2222H7.11111V17.7778H14.2222V24.8889H17.7778V17.7778H24.8889V14.2222H17.7778V7.11111H14.2222Z" fill="#878787"/>
</g>
<defs>
<clipPath id="clip0_229_422">
<rect width="32" height="32" fill="white"/>
</clipPath>
</defs>
</svg>
