<svg width="32" height="32" viewBox="0 0 32 32" fill="none" xmlns="http://www.w3.org/2000/svg">
<path fill-rule="evenodd" clip-rule="evenodd" d="M16.5 0C15.5492 0 14.7221 0.621421 13.0678 1.86426L10.579 3.73399C10.3184 3.92979 10.1881 4.02768 10.0482 4.11C9.90832 4.19233 9.75998 4.25841 9.46331 4.39055L6.63029 5.6525C4.74714 6.49134 3.80558 6.91076 3.33019 7.75C2.8548 8.58925 2.96922 9.63009 3.19807 11.7118L3.54235 14.8435C3.5784 15.1714 3.59642 15.3354 3.59642 15.5C3.59642 15.6647 3.5784 15.8286 3.54235 16.1565L3.19807 19.2883C2.96922 21.3699 2.8548 22.4107 3.33019 23.25C3.80558 24.0893 4.74714 24.5087 6.63029 25.3475L9.46331 26.6095C9.75998 26.7415 9.90832 26.8077 10.0482 26.89C10.1881 26.9724 10.3184 27.0702 10.579 27.266L13.0678 29.1358C14.7221 30.3785 15.5492 31 16.5 31C17.4508 31 18.278 30.3785 19.9323 29.1358L22.421 27.266C22.6816 27.0702 22.8119 26.9724 22.9517 26.89C23.0917 26.8077 23.24 26.7415 23.5367 26.6095L26.3696 25.3475C28.2529 24.5087 29.1945 24.0893 29.6698 23.25C30.1452 22.4107 30.0308 21.3699 29.8019 19.2883L29.4577 16.1565C29.4217 15.8286 29.4036 15.6647 29.4036 15.5C29.4036 15.3354 29.4215 15.1714 29.4577 14.8435L29.8019 11.7118C30.0308 9.63009 30.1452 8.58925 29.6698 7.75C29.1945 6.91076 28.2529 6.49134 26.3696 5.6525L23.5367 4.39055C23.24 4.25842 23.0917 4.19233 22.9517 4.11C22.8119 4.02768 22.6816 3.92979 22.421 3.73399L19.9323 1.86426C18.278 0.621421 17.4508 0 16.5 0ZM16.5 21.3961C19.6948 21.3961 22.2848 18.7563 22.2848 15.5C22.2848 12.2437 19.6948 9.6039 16.5 9.6039C13.3052 9.6039 10.7153 12.2437 10.7153 15.5C10.7153 18.7563 13.3052 21.3961 16.5 21.3961Z" fill="#878787"/>
</svg>
