<svg width="32" height="32" viewBox="0 0 32 32" fill="none" xmlns="http://www.w3.org/2000/svg">
<path fill-rule="evenodd" clip-rule="evenodd" d="M15.5 1C14.5492 1 13.7221 1.62142 12.0678 2.86426L9.57903 4.73399C9.31841 4.92979 9.18811 5.02768 9.04821 5.11C8.90832 5.19233 8.75998 5.25841 8.46331 5.39055L5.63029 6.6525C3.74714 7.49134 2.80558 7.91076 2.33019 8.75C1.8548 9.58925 1.96922 10.6301 2.19807 12.7118L2.54235 15.8435C2.5784 16.1714 2.59642 16.3354 2.59642 16.5C2.59642 16.6647 2.5784 16.8286 2.54235 17.1565L2.19807 20.2883C1.96922 22.3699 1.8548 23.4107 2.33019 24.25C2.80558 25.0893 3.74714 25.5087 5.63029 26.3475L8.46331 27.6095C8.75998 27.7415 8.90832 27.8077 9.04821 27.89C9.18811 27.9724 9.31841 28.0702 9.57903 28.266L12.0678 30.1358C13.7221 31.3785 14.5492 32 15.5 32C16.4508 32 17.278 31.3785 18.9323 30.1358L21.421 28.266C21.6816 28.0702 21.8119 27.9724 21.9517 27.89C22.0917 27.8077 22.24 27.7415 22.5367 27.6095L25.3696 26.3475C27.2529 25.5087 28.1945 25.0893 28.6698 24.25C29.1452 23.4107 29.0308 22.3699 28.8019 20.2883L28.4577 17.1565C28.4217 16.8286 28.4036 16.6647 28.4036 16.5C28.4036 16.3354 28.4215 16.1714 28.4577 15.8435L28.8019 12.7118C29.0308 10.6301 29.1452 9.58925 28.6698 8.75C28.1945 7.91076 27.2529 7.49134 25.3696 6.6525L22.5367 5.39055C22.24 5.25842 22.0917 5.19233 21.9517 5.11C21.8119 5.02768 21.6816 4.92979 21.421 4.73399L18.9323 2.86426C17.278 1.62142 16.4508 1 15.5 1ZM15.5 22.3961C18.6948 22.3961 21.2848 19.7563 21.2848 16.5C21.2848 13.2437 18.6948 10.6039 15.5 10.6039C12.3052 10.6039 9.71527 13.2437 9.71527 16.5C9.71527 19.7563 12.3052 22.3961 15.5 22.3961Z" fill="#8692FC"/>
</svg>
