<svg width="32" height="32" viewBox="0 0 32 32" fill="none" xmlns="http://www.w3.org/2000/svg">
<path d="M5 15H27V24C27 26.8284 27 28.2426 26.1945 29.1213C25.389 30 24.0927 30 21.5 30H10.5C7.90727 30 6.61091 30 5.80546 29.1213C5 28.2426 5 26.8284 5 24V15Z" fill="#878787"/>
<path d="M1.34373 9.36127L5.31905 13.9991L11.8458 6.38466L7.88074 3.30075C7.34078 2.88078 6.57884 2.90281 6.06404 3.35326L1.48759 7.35766C0.898453 7.87315 0.834277 8.76691 1.34373 9.36127Z" fill="#878787"/>
<path d="M30.914 9.36127L26.9386 13.9991L20.412 6.38466L24.377 3.30075C24.917 2.88078 25.6788 2.90281 26.1937 3.35326L30.7702 7.35766C31.3593 7.87315 31.4234 8.76691 30.914 9.36127Z" fill="#878787"/>
<path d="M25.988 13.4247V15.5663H6V13.4247L10.997 7H20.991L25.988 13.4247Z" stroke="#878787" stroke-width="2" stroke-linecap="round"/>
</svg>
