<svg width="24" height="24" viewBox="0 0 24 24" fill="none" xmlns="http://www.w3.org/2000/svg">
<path d="M4 11H20V17C20 18.8856 20 19.8284 19.4142 20.4142C18.8284 21 17.8856 21 16 21H8C6.11438 21 5.17157 21 4.58579 20.4142C4 19.8284 4 18.8856 4 17V11Z" fill="#222222"/>
<path d="M1.64418 6.75155L4.42857 10L9 4.66667L6.22283 2.50664C5.84463 2.21249 5.31095 2.22792 4.95038 2.54342L1.74494 5.34818C1.3323 5.70924 1.28735 6.33525 1.64418 6.75155Z" fill="#222222"/>
<path d="M22.3558 6.75155L19.5714 10L15 4.66667L17.7772 2.50664C18.1554 2.21249 18.689 2.22792 19.0496 2.54342L22.2551 5.34818C22.6677 5.70924 22.7126 6.33525 22.3558 6.75155Z" fill="#222222"/>
<path d="M19 9.5V11H5V9.5L8.5 5H15.5L19 9.5Z" stroke="#222222" stroke-width="2" stroke-linecap="round"/>
</svg>
