<svg width="19" height="21" viewBox="0 0 19 21" fill="none" xmlns="http://www.w3.org/2000/svg">
<path fill-rule="evenodd" clip-rule="evenodd" d="M0.812848 6.68438C0.458336 7.45517 0.458336 8.33205 0.458336 10.0858V15.563C0.458336 17.9986 0.458336 19.2164 1.21498 19.973C1.93402 20.6921 3.06952 20.7278 5.27084 20.7296V14.2714C5.27084 13.0058 6.29685 11.9797 7.5625 11.9797H11.4375C12.7032 11.9797 13.7292 13.0057 13.7292 14.2714V20.7296C15.9305 20.7278 17.066 20.6921 17.785 19.973C18.5417 19.2164 18.5417 17.9986 18.5417 15.563V10.0858C18.5417 8.33205 18.5417 7.45517 18.1872 6.68438C17.8326 5.91359 17.1669 5.34292 15.8353 4.20159L15.8353 4.20158L14.5436 3.09444C12.1369 1.03148 10.9335 0 9.5 0C8.06655 0 6.86315 1.03148 4.45637 3.09444L3.1647 4.20158C1.83314 5.34292 1.16736 5.91359 0.812848 6.68438ZM11.7292 20.7297V14.2714C11.7292 14.1103 11.5986 13.9797 11.4375 13.9797H7.5625C7.40142 13.9797 7.27084 14.1103 7.27084 14.2714V20.7297H11.7292Z" fill="white"/>
</svg>
