<svg width="19" height="22" viewBox="0 0 19 22" fill="none" xmlns="http://www.w3.org/2000/svg">
<path fill-rule="evenodd" clip-rule="evenodd" d="M9.33493 0C8.67749 0 8.10554 0.421579 6.96163 1.26474L5.24072 2.5332C5.06051 2.66602 4.97041 2.73244 4.87367 2.78829C4.77694 2.84414 4.67437 2.88896 4.46924 2.97861L2.51026 3.83473C1.20811 4.40381 0.557037 4.68835 0.228317 5.25771C-0.100402 5.82706 -0.0212807 6.53318 0.136961 7.94542L0.375022 10.07C0.399951 10.2925 0.412415 10.4037 0.412415 10.5154C0.412415 10.6271 0.399951 10.7384 0.375022 10.9608L0.136961 13.0854C-0.0212807 14.4976 -0.100402 15.2038 0.228317 15.7731C0.557037 16.3425 1.20811 16.627 2.51026 17.1961L4.46923 18.0522C4.67437 18.1419 4.77694 18.1867 4.87367 18.2425C4.97041 18.2984 5.06051 18.3648 5.24072 18.4976L6.96163 19.7661C8.10554 20.6092 8.67749 21.0308 9.33493 21.0308C9.99237 21.0308 10.5643 20.6092 11.7082 19.7661L11.7082 19.7661L13.4291 18.4976C13.6094 18.3648 13.6995 18.2984 13.7962 18.2425C13.8929 18.1867 13.9955 18.1419 14.2006 18.0522L16.1596 17.1961C17.4618 16.627 18.1128 16.3425 18.4415 15.7731C18.7703 15.2038 18.6911 14.4976 18.5329 13.0854L18.2948 10.9608L18.2948 10.9608C18.2699 10.7383 18.2574 10.6271 18.2574 10.5154C18.2574 10.4037 18.2699 10.2925 18.2948 10.0701L18.2948 10.07L18.5329 7.94542C18.6911 6.53318 18.7703 5.82706 18.4415 5.25771C18.1128 4.68835 17.4618 4.40381 16.1596 3.83473L14.2006 2.97861L14.2006 2.97861C13.9955 2.88896 13.8929 2.84414 13.7962 2.78829C13.6995 2.73244 13.6094 2.66602 13.4291 2.5332L11.7082 1.26474C10.5643 0.421579 9.99237 0 9.33493 0ZM9.33493 14.5154C11.5441 14.5154 13.3349 12.7246 13.3349 10.5154C13.3349 8.30627 11.5441 6.51541 9.33493 6.51541C7.12579 6.51541 5.33493 8.30627 5.33493 10.5154C5.33493 12.7246 7.12579 14.5154 9.33493 14.5154Z" fill="white"/>
</svg>
